# Blender 5.1.2
# www.blender.org
mtllib island.mtl
o Terrain
v -2.500000 0.000000 2.500000
v -2.500000 0.000000 -2.500000
v 2.500000 0.000000 -2.500000
v -2.499136 -0.002578 0.000308
v -0.000217 0.003005 2.499658
v 2.500000 0.000000 0.000000
v -0.000885 0.002261 -2.500355
v -0.508739 0.782077 0.136201
v -2.500000 0.000000 1.250000
v 2.499351 0.002547 -1.250070
v -1.250000 0.000000 -2.500000
v -2.500000 0.000000 -1.250000
v -1.250000 0.000000 2.500000
v 1.249263 0.004416 -2.499402
v -0.300878 0.582219 -1.153266
v -0.233086 0.360967 1.311311
v -1.476814 0.341950 0.063583
v 1.054167 0.304538 0.044074
v 1.159440 0.207444 1.263455
v -1.325809 0.110938 1.272697
v -1.329104 0.120779 -1.228480
v 1.085492 0.321781 -1.210490
v -2.500000 0.000000 1.875000
v 2.500000 0.000000 -1.875000
v -1.875000 0.000000 -2.500000
v -2.499855 -0.000432 -0.624948
v -0.625000 0.000000 2.500000
v 2.500000 0.000000 0.625000
v 0.625000 0.000000 -2.500000
v -0.177854 0.399629 -1.909136
v -0.420506 0.646384 0.737527
v -1.924950 0.069044 0.016702
v 0.247557 0.633003 0.046699
v -2.499528 -0.001409 0.625169
v 0.625000 0.000000 2.500000
v 2.500000 0.000000 -0.625000
v -0.625000 0.000000 -2.500000
v -2.500000 0.000000 -1.875000
v -1.875000 0.000000 2.500000
v 1.875000 0.000000 -2.500000
v -0.485932 0.948433 -0.516541
v -0.066303 0.216800 1.874748
v -1.043993 0.641864 0.113067
v 1.815334 0.098057 0.013232
v 1.201863 0.336290 0.536533
v 1.246667 0.006504 1.875665
v 0.435119 0.299726 1.297428
v 1.839379 0.064466 1.234409
v -1.429401 0.268429 0.676171
v -1.251713 0.000901 1.876205
v -1.875089 -0.003949 1.251785
v -0.807832 0.278675 1.299946
v -1.253064 0.004935 -1.874277
v -1.431408 0.274423 -0.574546
v -1.876889 0.001428 -1.248858
v -0.815145 0.301636 -1.199076
v 1.208044 0.230981 -1.843812
v 1.056366 0.311346 -0.579189
v 0.432662 0.307077 -1.203402
v 1.836431 0.144225 -1.253103
v 1.836056 0.065077 -0.616518
v 0.305665 0.772275 -0.616493
v 0.585446 0.066313 -1.866787
v -0.977306 0.556603 -0.531894
v -1.907065 0.044094 -0.614179
v -1.875000 0.000000 -1.875000
v -0.660667 0.058489 1.884125
v -1.875000 0.000000 1.875000
v -1.905402 0.039128 0.636414
v 1.874322 0.001238 1.874660
v 0.586656 0.063749 1.883477
v 0.274698 0.542984 0.715610
v 1.835579 0.065393 0.633201
v -0.970677 0.528117 0.718901
v -0.667008 0.071910 -1.867918
v 1.873603 0.006884 -1.874527
v -1.452595 0.305932 -0.276785
v -0.131272 0.295034 -2.064757
v -0.134048 0.275358 1.645889
v -0.799999 0.278148 -1.267461
v -0.881395 0.278324 -1.202866
v 1.216007 0.260636 0.037516
v -0.334210 0.294875 -1.895961
v -1.562510 0.289763 0.054618
v 1.134040 0.285812 -1.461373
v 0.490285 0.216272 -1.453601
v 1.335770 0.279048 0.556959
v -1.531714 0.219142 0.667625
v 1.167793 0.232816 1.120314
v 0.120015 0.269557 -1.892610
v 0.109090 0.274327 -1.893216
v 1.342198 0.261084 -1.225057
v -0.785363 0.245057 1.389138
v 0.922420 0.237642 1.274572
v -1.358227 0.160224 1.086019
v -1.357080 0.320611 -0.567565
v 0.487456 0.218224 1.499837
v 1.333234 0.223896 -0.592445
v -0.960073 0.229375 1.291937
v -0.413138 0.207789 1.629979
v 0.075763 0.265839 1.598817
v 0.312801 0.222732 1.603643
v 1.321388 0.288470 0.424828
v 1.412597 0.235397 -0.900408
v 1.225543 0.220611 1.066844
v 1.336642 0.255760 0.671435
v 1.154194 0.276927 -0.291579
v 1.302250 0.231332 -0.395769
v 0.063135 0.282941 -2.044178
v 0.311099 0.254535 -1.544383
v 0.614922 0.223069 1.436137
v -1.111262 0.273918 -0.949929
v -1.596472 0.231255 0.388679
v 1.299886 0.241930 -1.363131
vn 0.0055 1.0000 -0.0055
vn -0.2639 0.8883 -0.3759
vn -0.2639 0.8883 -0.3758
vn -0.2339 0.9455 0.2267
vn 0.1206 0.9924 0.0241
vn 0.2953 0.9554 0.0035
vn 0.1080 0.9419 0.3181
vn -0.4907 0.8669 0.0883
vn -0.4906 0.8669 0.0884
vn -0.4906 0.8669 0.0883
vn -0.0996 0.9908 0.0917
vn -0.2051 0.9180 0.3395
vn -0.0040 1.0000 -0.0040
vn -0.3093 0.9349 -0.1742
vn -0.3092 0.9349 -0.1742
vn -0.4678 0.7431 -0.4786
vn -0.1266 0.9656 -0.2273
vn 0.2948 0.9070 -0.3008
vn 0.1539 0.9860 0.0638
vn 0.2480 0.9676 0.0463
vn 0.2921 0.9563 0.0084
vn 0.1197 0.9925 -0.0241
vn 0.1959 0.8336 -0.5164
vn 0.2272 0.9454 0.2335
vn 0.4466 0.8864 0.1216
vn 0.3805 0.8162 -0.4347
vn 0.3657 0.9097 -0.1971
vn 0.3657 0.9096 -0.1971
vn -0.0656 0.9640 -0.2578
vn -0.3238 0.9045 -0.2774
vn -0.5329 0.8334 -0.1466
vn -0.4607 0.8872 0.0236
vn -0.4607 0.8872 0.0237
vn -0.0374 0.9987 -0.0344
vn -0.0374 0.9987 -0.0343
vn -0.0986 0.9949 -0.0194
vn -0.4682 0.8795 -0.0853
vn -0.0000 1.0000 -0.0000
vn -0.0012 1.0000 -0.0012
vn -0.1034 0.9898 -0.0976
vn -0.1968 0.9352 0.2943
vn -0.0475 0.9977 0.0492
vn -0.1261 0.9667 0.2225
vn 0.0032 1.0000 -0.0032
vn -0.0008 1.0000 0.0008
vn -0.0961 0.9951 0.0244
vn -0.0961 0.9951 0.0245
vn -0.0303 0.9990 0.0343
vn -0.3133 0.9324 0.1802
vn 0.1149 0.9742 0.1943
vn 0.1894 0.9368 0.2943
vn 0.1171 0.9712 0.2073
vn 0.1809 0.9710 0.1561
vn 0.1207 0.9160 0.3827
vn 0.2059 0.9454 0.2528
vn 0.2704 0.9553 -0.1196
vn 0.2829 0.9551 0.0883
vn -0.5362 0.8247 0.1799
vn -0.3085 0.9051 0.2925
vn -0.1680 0.8741 0.4558
vn -0.0548 0.9965 -0.0628
vn -0.2016 0.9384 -0.2805
vn -0.2016 0.9385 -0.2805
vn -0.4676 0.8296 -0.3052
vn 0.1676 0.9708 -0.1714
vn 0.2626 0.9559 -0.1313
vn 0.1140 0.9877 -0.1074
vn -0.5150 0.8478 -0.1264
vn -0.1714 0.9213 0.3491
vn 0.1206 0.9613 0.2475
vn -0.5063 0.8531 -0.1263
vn 0.1326 0.9746 0.1805
vn 0.3388 0.9404 -0.0304
vn 0.3388 0.9404 -0.0305
vn -0.3012 0.8648 0.4018
vn 0.2836 0.9545 0.0921
vn 0.3627 0.9137 0.1831
vn 0.2780 0.9603 -0.0219
vn -0.4855 0.6513 -0.5831
vn -0.4037 0.8282 0.3888
vn -0.4037 0.8282 0.3887
vn 0.2220 0.9279 -0.2994
vn -0.2899 0.8836 -0.3677
vn 0.3763 0.9031 -0.2070
vn 0.1345 0.9308 0.3400
vn -0.5371 0.7541 -0.3780
vn -0.4342 0.8495 0.2997
vn -0.1714 0.9447 -0.2796
vn -0.4344 0.8091 -0.3958
vn -0.4573 0.8796 0.1312
vn 0.2635 0.9543 -0.1409
vn 0.2953 0.9554 0.0034
vn 0.1081 0.9419 0.3181
vn -0.4677 0.7431 -0.4786
vn -0.1267 0.9655 -0.2274
vn 0.2949 0.9070 -0.3008
vn 0.2481 0.9676 0.0463
vn 0.2922 0.9563 0.0084
vn 0.1958 0.8336 -0.5165
vn 0.3805 0.8162 -0.4348
vn 0.3805 0.8163 -0.4347
vn 0.3657 0.9097 -0.1970
vn 0.3657 0.9096 -0.1970
vn -0.0656 0.9640 -0.2577
vn -0.3239 0.9045 -0.2774
vn -0.4607 0.8873 0.0237
vn -0.4682 0.8795 -0.0854
vn -0.0011 1.0000 -0.0011
vn -0.0476 0.9977 0.0492
vn -0.1262 0.9667 0.2225
vn -0.0006 1.0000 0.0006
vn -0.0304 0.9990 0.0343
vn 0.1893 0.9368 0.2943
vn 0.1894 0.9367 0.2944
vn 0.2058 0.9454 0.2529
vn 0.2058 0.9454 0.2528
vn 0.2705 0.9553 -0.1196
vn 0.2830 0.9551 0.0883
vn 0.1677 0.9708 -0.1713
vn 0.1141 0.9877 -0.1074
vn 0.1207 0.9613 0.2476
vn 0.2835 0.9545 0.0921
vn 0.2779 0.9603 -0.0219
vn -0.4038 0.8282 0.3887
vn 0.2221 0.9279 -0.2994
vn 0.2222 0.9279 -0.2993
vn 0.2221 0.9280 -0.2993
vn 0.2221 0.9279 -0.2993
vn -0.1713 0.9447 -0.2796
vn -0.4344 0.8091 -0.3957
vt 4.848868 3.981302
vt 5.973935 5.141951
vt 4.676910 5.376136
vt 0.604994 5.057251
vt 0.713578 5.830233
vt -0.539417 5.613121
vt -0.158985 -0.623945
vt -1.750660 -0.438683
vt -1.164177 -1.226599
vt 6.243106 -0.211147
vt 4.423202 0.628775
vt 4.084654 -0.391021
vt 2.601907 0.101512
vt 1.770052 1.578256
vt 1.234803 -0.102464
vt 2.800578 -3.086872
vt 2.177866 -1.755897
vt 1.669545 -2.168238
vt -2.623210 -1.358651
vt -2.783744 -0.915982
vt -3.585480 -1.108036
vt -1.410548 -3.402945
vt -2.769475 -2.519909
vt -2.612183 -3.591457
vt -0.106280 -2.841107
vt -0.733268 -2.421958
vt -0.381860 -3.464479
vt -3.122343 4.064705
vt -1.830862 5.572185
vt -3.191588 5.555619
vt -2.587052 1.035757
vt -2.991228 1.772618
vt -3.496741 0.358164
vt -0.227856 2.016218
vt -0.911292 2.931419
vt -1.797459 1.032588
vt 2.111008 5.052094
vt 3.290846 5.876906
vt 1.912617 5.978319
vt 2.069600 2.775017
vt 3.481010 3.291126
vt 1.981359 3.829803
vt 6.384057 1.599873
vt 5.724202 2.011600
vt 5.006184 1.351080
vt 4.302091 2.159075
vt 4.247837 2.853725
vt 3.760765 1.428050
vt 4.020886 1.661670
vt 3.478354 1.832690
vt 0.267643 3.324891
vt -0.306999 0.702496
vt 2.771324 0.985879
vt 0.566202 4.781097
vt 1.169044 4.886851
vt 1.628340 4.364712
vt 1.146934 4.882972
vt 3.507532 3.822206
vt 2.030257 4.290796
vt -1.746452 2.095692
vt -1.057314 2.888607
vt -2.044128 2.599286
vt -2.457810 1.035238
vt -2.590378 0.146234
vt -4.648352 0.808116
vt -4.303531 2.469921
vt -4.922525 -0.682469
vt -4.468345 5.459107
vt -4.400556 3.875405
vt -1.804476 4.118027
vt -1.029338 -2.248309
vt -0.541053 -4.713350
vt -1.782755 -4.609382
vt 0.464957 -4.592172
vt -4.301429 -3.093178
vt -3.974074 -4.254655
vt -3.035809 -4.617131
vt -4.274665 -4.997401
vt -3.205728 -1.892934
vt -4.700433 -2.185298
vt -2.289072 -1.670187
vt -1.729186 -2.071747
vt 4.067036 -2.836921
vt 2.574121 -1.698047
vt 1.126593 -2.594293
vt 0.688019 -2.628511
vt 0.445166 -3.257908
vt 1.370547 -4.646685
vt 1.363186 -1.874834
vt 0.099767 -2.082286
vt 2.986498 0.222350
vt 3.122545 0.909952
vt 3.852873 -1.383463
vt 2.918584 -0.268154
vt 2.696860 -1.207996
vt -2.594180 -0.870573
vt -2.038097 -1.609200
vt -1.588483 -2.282429
vt -0.796589 -2.234106
vt -0.869311 3.078934
vt -0.500691 4.374201
vt 0.225174 4.651034
vt 3.547962 4.631771
vt 5.968873 3.799880
vt 0.304870 -2.780388
vt 2.579592 -1.343688
vt 2.915219 -0.002563
vt 1.453451 -2.329905
vt 4.025849 3.298411
vt 6.445463 0.751186
vt 1.624537 -3.192436
vt 6.582284 2.240461
vt 3.352474 1.381932
s 0
usemtl Material
f 31/7/4 43/8/4 74/9/4
f 45/13/6 33/14/6 72/15/6
f 41/34/16 56/35/16 64/36/16
f 62/40/18 22/41/18 59/42/18
f 104/46/20 92/47/20 22/41/20
f 108/48/21 98/49/21 58/50/21
f 41/34/23 59/42/23 15/51/23
f 8/52/24 62/40/24 41/34/24
f 18/53/25 62/40/25 33/14/25
f 110/56/27 91/57/27 30/54/28
f 59/42/29 85/58/29 86/59/29
f 64/36/31 96/63/31 77/64/31
f 43/8/32 41/34/33 64/36/32
f 72/15/53 8/52/53 31/7/53
f 47/89/54 31/7/54 16/90/54
f 94/17/55 45/13/55 72/15/55
f 103/91/56 82/92/56 18/53/56
f 74/9/58 17/96/58 49/97/58
f 16/90/60 74/9/60 52/99/60
f 15/51/64 83/102/64 80/100/64
f 92/47/66 85/58/66 22/41/66
f 100/25/69 79/105/69 16/90/69
f 47/89/70 16/90/70 101/86/70
f 77/64/71 84/20/71 17/96/71
f 99/71/75 93/26/75 52/99/75
f 106/94/77 87/107/77 45/13/77
f 99/71/80 52/99/80 74/9/81
f 80/100/83 81/61/83 56/35/83
f 97/108/85 94/17/85 47/89/85
f 88/81/87 95/82/87 49/97/87
f 112/60/89 64/36/89 56/35/89
f 113/19/90 49/97/90 17/96/90
f 31/7/4 8/52/4 43/8/4
f 45/13/92 18/53/92 33/14/92
f 41/34/94 15/51/94 56/35/94
f 62/40/96 58/50/96 22/41/96
f 22/41/20 58/50/20 104/46/20
f 58/50/97 98/49/97 104/46/97
f 58/50/21 18/53/21 107/113/21
f 18/53/98 82/92/98 107/113/98
f 107/113/21 108/48/21 58/50/21
f 41/34/99 62/40/99 59/42/99
f 8/52/24 33/14/24 62/40/24
f 18/53/25 58/50/25 62/40/25
f 30/54/102 15/51/102 110/56/103
f 15/51/102 59/42/102 110/56/102
f 59/42/102 86/59/28 110/56/102
f 59/42/104 22/41/29 85/58/104
f 77/64/31 17/96/31 43/8/31
f 43/8/31 64/36/31 77/64/31
f 43/8/106 8/52/106 41/34/33
f 72/15/53 33/14/53 8/52/53
f 47/89/54 72/15/54 31/7/54
f 72/15/115 47/89/115 94/17/115
f 94/17/116 89/106/116 45/13/116
f 18/53/56 45/13/56 103/91/56
f 45/13/117 87/107/56 103/91/56
f 74/9/58 43/8/58 17/96/58
f 16/90/60 31/7/60 74/9/60
f 80/100/64 56/35/64 15/51/64
f 15/51/64 30/54/64 83/102/64
f 92/47/66 114/109/66 85/58/66
f 52/99/69 93/26/69 16/90/69
f 93/26/69 100/25/69 16/90/69
f 16/90/70 79/105/70 101/86/70
f 101/86/70 102/85/70 47/89/70
f 102/85/121 97/108/121 47/89/121
f 45/13/77 89/106/77 105/95/77
f 105/95/77 106/94/77 45/13/77
f 49/97/124 95/82/124 74/9/124
f 95/82/124 99/71/124 74/9/124
f 97/108/85 111/18/85 94/17/85
f 56/35/130 81/61/130 112/60/130
f 112/60/89 96/63/89 64/36/89
f 17/96/90 84/20/90 113/19/90
f 113/19/90 88/81/90 49/97/90
usemtl Sand
f 76/1/1 3/2/1 40/3/1
f 78/4/2 7/5/3 37/6/2
f 28/10/5 44/11/5 73/12/5
f 46/16/7 94/17/7 111/18/7
f 113/19/8 84/20/9 32/21/10
f 50/22/11 51/23/11 68/24/11
f 100/25/12 93/26/12 67/27/12
f 66/28/13 11/29/13 25/30/13
f 54/31/14 55/32/15 65/33/15
f 63/37/17 14/38/17 29/39/17
f 36/43/19 60/44/19 61/45/19
f 44/11/22 36/43/22 61/45/22
f 30/54/26 90/55/26 78/4/26
f 112/60/30 81/61/30 21/62/30
f 26/65/34 55/32/34 12/66/35
f 32/21/36 26/65/36 4/67/36
f 77/64/37 54/31/37 65/33/37
f 66/28/38 2/68/38 38/69/38
f 12/66/39 66/28/39 38/69/39
f 55/32/40 53/70/40 66/28/40
f 99/71/41 50/22/41 93/26/41
f 27/72/42 50/22/42 13/73/42
f 5/74/43 67/27/43 27/72/43
f 68/24/44 9/75/44 23/76/44
f 39/77/38 23/76/38 1/78/38
f 13/73/45 68/24/45 39/77/45
f 69/79/46 4/67/47 34/80/47
f 51/23/48 34/80/48 9/75/48
f 88/81/49 51/23/49 95/82/49
f 70/83/50 19/84/50 46/16/50
f 102/85/51 101/86/51 42/87/51
f 35/88/52 42/87/52 5/74/52
f 48/93/57 106/94/57 105/95/57
f 20/98/59 99/71/59 95/82/59
f 53/70/61 37/6/61 11/29/61
f 80/100/62 75/101/62 53/70/63
f 57/103/65 40/3/65 14/38/65
f 60/44/67 24/104/67 76/1/67
f 77/64/68 96/63/68 54/31/68
f 89/106/72 94/17/72 19/84/72
f 103/91/73 73/12/74 44/11/74
f 104/46/76 61/45/76 60/44/76
f 44/11/78 61/45/78 108/48/78
f 78/4/79 83/102/79 30/54/79
f 90/55/82 29/39/82 7/5/82
f 110/56/84 63/37/84 90/55/84
f 80/100/86 83/102/86 75/101/86
f 86/59/88 57/103/88 63/37/88
f 76/1/91 57/103/91 114/109/91
f 76/1/1 24/104/1 3/2/1
f 37/6/3 75/101/3 83/102/3
f 83/102/3 78/4/3 37/6/3
f 28/10/5 6/110/5 44/11/5
f 97/108/93 71/111/93 111/18/93
f 71/111/7 46/16/7 111/18/7
f 46/16/7 19/84/7 94/17/7
f 32/21/10 69/79/10 113/19/10
f 69/79/9 88/81/9 113/19/9
f 50/22/11 20/98/11 51/23/11
f 67/27/12 42/87/12 100/25/12
f 42/87/12 79/105/12 100/25/12
f 66/28/13 53/70/13 11/29/13
f 54/31/15 21/62/15 55/32/15
f 63/37/95 57/103/95 14/38/95
f 36/43/19 10/112/19 60/44/19
f 44/11/22 6/110/22 36/43/22
f 30/54/100 91/57/100 90/55/101
f 21/62/30 54/31/30 112/60/30
f 54/31/30 96/63/30 112/60/105
f 26/65/34 65/33/34 55/32/34
f 32/21/36 65/33/36 26/65/36
f 65/33/37 32/21/37 77/64/37
f 32/21/37 84/20/37 77/64/107
f 66/28/38 25/30/38 2/68/38
f 12/66/108 55/32/108 66/28/108
f 55/32/40 21/62/40 53/70/40
f 20/98/41 50/22/41 99/71/41
f 50/22/41 67/27/41 93/26/41
f 27/72/109 67/27/109 50/22/109
f 5/74/110 42/87/110 67/27/110
f 68/24/44 51/23/44 9/75/44
f 39/77/38 68/24/38 23/76/38
f 13/73/111 50/22/111 68/24/111
f 69/79/47 32/21/47 4/67/47
f 51/23/112 69/79/112 34/80/112
f 69/79/49 51/23/49 88/81/49
f 51/23/49 20/98/49 95/82/49
f 70/83/50 48/93/50 19/84/50
f 79/105/113 42/87/113 101/86/113
f 42/87/114 71/111/114 102/85/114
f 71/111/114 97/108/114 102/85/114
f 35/88/52 71/111/52 42/87/52
f 89/106/57 19/84/118 105/95/118
f 19/84/57 48/93/57 105/95/57
f 48/93/118 73/12/118 106/94/118
f 73/12/118 87/107/118 106/94/118
f 53/70/61 75/101/61 37/6/61
f 53/70/62 21/62/62 80/100/62
f 21/62/62 81/61/62 80/100/62
f 57/103/119 76/1/119 40/3/119
f 60/44/120 10/112/67 24/104/67
f 44/11/74 82/92/74 103/91/74
f 103/91/74 87/107/74 73/12/74
f 60/44/122 92/47/76 104/46/76
f 104/46/76 98/49/76 61/45/76
f 61/45/78 98/49/78 108/48/78
f 108/48/78 107/113/78 82/92/78
f 82/92/123 44/11/123 108/48/123
f 7/5/125 78/4/125 90/55/125
f 90/55/126 63/37/127 29/39/128
f 90/55/84 91/57/84 110/56/84
f 110/56/84 86/59/84 63/37/84
f 86/59/129 85/58/129 57/103/129
f 57/103/91 85/58/91 114/109/91
f 114/109/91 92/47/91 60/44/91
f 60/44/91 76/1/91 114/109/91
o Pier
v 1.385140 0.109067 0.330938
v 1.385140 0.247856 0.330938
v 1.385140 0.109067 -0.169062
v 1.385140 0.247856 -0.169062
v 1.885140 0.109067 0.330938
v 1.885140 0.247856 0.330938
v 1.885140 0.109067 -0.169062
v 1.885140 0.247856 -0.169062
v 2.235530 0.247856 -0.169062
v 2.235530 0.109067 -0.169062
v 2.235530 0.109067 0.330938
v 2.235530 0.247856 0.330938
v 1.229470 0.109067 -0.169062
v 1.229470 0.109067 0.330938
v 1.229470 0.247856 0.330938
v 1.229470 0.247856 -0.169062
v 1.385140 -0.019194 -0.169062
v 1.385140 -0.019194 0.330938
v 1.885140 -0.019194 -0.169062
v 1.885140 -0.019194 0.330938
v 2.235530 -0.019194 0.330938
v 2.235530 -0.019194 -0.169062
v 1.229470 -0.019194 -0.169062
v 1.229470 -0.019194 0.330938
vn -0.0000 1.0000 -0.0000
vn -0.0000 -0.0000 -1.0000
vn -0.0000 -0.0000 1.0000
vn 1.0000 -0.0000 -0.0000
vn -1.0000 -0.0000 -0.0000
vn -0.0000 -1.0000 -0.0000
vt 0.252446 0.352972
vt 0.252446 0.705987
vt 0.142538 0.705987
vt 0.142538 0.352972
vt 0.252446 0.803977
vt 0.605462 0.803977
vt 0.605462 0.705987
vt 0.605462 0.901967
vt 0.852848 0.803977
vt 0.852848 0.901967
vt 0.252446 0.901967
vt 0.601395 0.820912
vt 0.248379 0.820912
vt 0.605462 0.352972
vt 0.499832 0.901967
vt 0.499832 0.999956
vt 0.146817 0.999956
vt 0.146817 0.901967
vt 0.852848 0.352972
vt 0.852848 0.705987
vt 0.852848 0.803977
vt 0.499832 0.999956
vt 0.852848 0.999956
vt 0.250493 0.816672
vt 0.140585 0.816672
vt 0.142538 0.803977
vt 0.142538 0.901967
vt 0.605462 0.352972
vt 0.605462 -0.000044
vt 0.252446 -0.000043
vt 0.852848 0.352972
vt 0.852848 -0.000044
vt 0.142538 -0.000043
vt 0.142538 0.352972
vt 0.850895 0.816672
vt 0.603509 0.816672
s 0
usemtl Material.001
f 116/114/131 118/115/131 130/116/131 129/117/131
f 117/115/132 118/118/132 122/119/132 121/120/132
f 120/121/133 119/119/133 125/122/133 126/123/133
f 119/119/133 120/121/133 116/124/133 115/118/133
f 124/125/134 125/126/134 135/126/134 136/125/134
f 122/120/131 118/115/131 116/114/131 120/127/131
f 124/128/134 123/129/134 126/130/134 125/131/134
f 117/115/132 121/120/132 133/120/132 131/115/132
f 122/120/131 120/127/131 126/132/131 123/133/131
f 121/120/132 122/119/132 123/134/132 124/133/132
f 128/128/135 129/135/135 130/136/135 127/123/135
f 115/137/133 128/138/133 138/138/133 132/137/133
f 118/118/132 117/115/132 127/116/132 130/139/132
f 115/118/133 116/124/133 129/140/133 128/139/133
f 131/114/136 133/141/136 134/142/136 132/143/136
f 134/142/136 133/141/136 136/144/136 135/145/136
f 131/114/136 132/143/136 138/146/136 137/147/136
f 128/128/135 127/123/135 137/123/135 138/128/135
f 121/120/132 124/133/132 136/133/132 133/120/132
f 127/116/132 117/115/132 131/115/132 137/116/132
f 125/148/133 119/149/133 134/149/133 135/148/133
f 119/149/133 115/137/133 132/137/133 134/149/133
o Bush
v 0.861553 0.310545 0.059208
v 1.073686 0.310545 -0.152924
v 0.861553 0.610545 0.059208
v 1.073686 0.610545 -0.152924
vn 0.7071 -0.0000 0.7071
vt 0.000000 0.000000
vt 1.000000 0.000000
vt 1.000000 1.000000
vt 0.000000 1.000000
s 0
usemtl Bush
f 139/150/137 140/151/137 142/152/137 141/153/137
o Bush.001
v 0.646787 0.377892 0.437977
v 0.858919 0.377892 0.225845
v 0.646787 0.677892 0.437977
v 0.858919 0.677892 0.225845
vn 0.7071 -0.0000 0.7071
vt 0.000000 0.000000
vt 1.000000 0.000000
vt 1.000000 1.000000
vt 0.000000 1.000000
s 0
usemtl Bush
f 143/154/138 144/155/138 146/156/138 145/157/138
o Bush.002
v 0.532350 0.320303 1.088148
v 0.744483 0.320303 0.876016
v 0.532350 0.620303 1.088148
v 0.744483 0.620303 0.876016
vn 0.7071 -0.0000 0.7071
vt 0.000000 0.000000
vt 1.000000 0.000000
vt 1.000000 1.000000
vt 0.000000 1.000000
s 0
usemtl Bush
f 147/158/139 148/159/139 150/160/139 149/161/139
o Bush.003
v 0.011991 0.558913 0.697780
v 0.224123 0.558913 0.485648
v 0.011991 0.858913 0.697780
v 0.224123 0.858913 0.485648
vn 0.7071 -0.0000 0.7071
vt 0.000000 0.000000
vt 1.000000 0.000000
vt 1.000000 1.000000
vt 0.000000 1.000000
s 0
usemtl Bush
f 151/162/140 152/163/140 154/164/140 153/165/140
o Bush.004
v -0.023804 0.599756 0.424441
v 0.188328 0.599756 0.212309
v -0.023804 0.899756 0.424441
v 0.188328 0.899756 0.212309
vn 0.7071 -0.0000 0.7071
vt 0.000000 0.000000
vt 1.000000 0.000000
vt 1.000000 1.000000
vt 0.000000 1.000000
s 0
usemtl Bush
f 155/166/141 156/167/141 158/168/141 157/169/141
o Bush.005
v 0.158540 0.615647 0.092601
v 0.370672 0.615647 -0.119531
v 0.158540 0.915647 0.092601
v 0.370672 0.915647 -0.119531
vn 0.7071 -0.0000 0.7071
vt 0.000000 0.000000
vt 1.000000 0.000000
vt 1.000000 1.000000
vt 0.000000 1.000000
s 0
usemtl Bush
f 159/170/142 160/171/142 162/172/142 161/173/142
o Bush.006
v 0.461047 0.576784 -0.620104
v 0.673179 0.576784 -0.832236
v 0.461047 0.876784 -0.620104
v 0.673179 0.876784 -0.832236
vn 0.7071 -0.0000 0.7071
vt 0.000000 0.000000
vt 1.000000 0.000000
vt 1.000000 1.000000
vt 0.000000 1.000000
s 0
usemtl Bush
f 163/174/143 164/175/143 166/176/143 165/177/143
o Bush.007
v 0.751621 0.443894 -0.819630
v 0.957922 0.377870 -1.027189
v 0.826435 0.733865 -0.837510
v 1.032736 0.667841 -1.045069
vn 0.6819 -0.1315 0.7196
vt 0.000000 0.000000
vt 1.000000 0.000000
vt 1.000000 1.000000
vt 0.000000 1.000000
s 0
usemtl Bush
f 167/178/144 168/179/144 170/180/144 169/181/144
o Bush.008
v 0.190754 0.728299 -0.406652
v 0.402886 0.728299 -0.618784
v 0.190754 1.028299 -0.406652
v 0.402886 1.028299 -0.618784
vn 0.7071 -0.0000 0.7071
vt 0.000000 0.000000
vt 1.000000 0.000000
vt 1.000000 1.000000
vt 0.000000 1.000000
s 0
usemtl Bush
f 171/182/145 172/183/145 174/184/145 173/185/145
o Ship
v 1.621994 0.072474 0.713993
v 2.429582 0.072474 0.409811
v 1.621994 0.578831 0.713993
v 2.429582 0.578831 0.409811
vn 0.3525 -0.0000 0.9358
vt 0.026067 0.120688
vt 0.936505 0.120688
vt 0.936505 0.912944
vt 0.026067 0.912944
s 0
usemtl Ship
f 175/186/146 176/187/146 178/188/146 177/189/146
